<mxfile host="Electron" agent="Mozilla/5.0 (X11; Linux x86_64) AppleWebKit/537.36 (KHTML, like Gecko) draw.io/25.0.1 Chrome/128.0.6613.186 Electron/32.2.6 Safari/537.36" version="25.0.1" pages="2">
  <diagram name="Top-Level" id="V_xrYAti8G9mdxkXiVbJ">
    <mxGraphModel dx="2004" dy="1203" grid="1" gridSize="10" guides="1" tooltips="1" connect="1" arrows="1" fold="1" page="1" pageScale="1" pageWidth="1100" pageHeight="850" math="0" shadow="0">
      <root>
        <mxCell id="0" />
        <mxCell id="1" parent="0" />
        <mxCell id="fttkbjFi21xkt61TpV1o-5" value="" style="rounded=0;whiteSpace=wrap;html=1;" parent="1" vertex="1">
          <mxGeometry x="310" y="115" width="460" height="660" as="geometry" />
        </mxCell>
        <mxCell id="6gvxb45RrVg8vPV9pz8E-1" value="Top-Level Design" style="text;html=1;align=center;verticalAlign=middle;whiteSpace=wrap;rounded=0;" parent="1" vertex="1">
          <mxGeometry width="120" height="30" as="geometry" />
        </mxCell>
        <mxCell id="fttkbjFi21xkt61TpV1o-2" value="" style="rounded=0;whiteSpace=wrap;html=1;" parent="1" vertex="1">
          <mxGeometry x="560" y="195" width="120" height="550" as="geometry" />
        </mxCell>
        <mxCell id="6gvxb45RrVg8vPV9pz8E-2" value="eth_top" style="text;html=1;align=center;verticalAlign=middle;whiteSpace=wrap;rounded=0;" parent="1" vertex="1">
          <mxGeometry x="560" y="195" width="60" height="30" as="geometry" />
        </mxCell>
        <mxCell id="6gvxb45RrVg8vPV9pz8E-3" value="clk_rst_mgr" style="whiteSpace=wrap;html=1;aspect=fixed;" parent="1" vertex="1">
          <mxGeometry x="580" y="335" width="80" height="80" as="geometry" />
        </mxCell>
        <mxCell id="6gvxb45RrVg8vPV9pz8E-4" value="eth_tx&lt;div&gt;(packet_form)&lt;/div&gt;" style="whiteSpace=wrap;html=1;aspect=fixed;" parent="1" vertex="1">
          <mxGeometry x="580" y="635" width="80" height="80" as="geometry" />
        </mxCell>
        <mxCell id="6gvxb45RrVg8vPV9pz8E-5" value="eth_rx" style="whiteSpace=wrap;html=1;aspect=fixed;" parent="1" vertex="1">
          <mxGeometry x="580" y="535" width="80" height="80" as="geometry" />
        </mxCell>
        <mxCell id="6gvxb45RrVg8vPV9pz8E-6" value="eth_regs" style="whiteSpace=wrap;html=1;aspect=fixed;" parent="1" vertex="1">
          <mxGeometry x="580" y="235" width="80" height="80" as="geometry" />
        </mxCell>
        <mxCell id="fttkbjFi21xkt61TpV1o-1" value="eth_mdio" style="whiteSpace=wrap;html=1;aspect=fixed;" parent="1" vertex="1">
          <mxGeometry x="580" y="435" width="80" height="80" as="geometry" />
        </mxCell>
        <mxCell id="fttkbjFi21xkt61TpV1o-4" value="proj_top" style="text;html=1;align=center;verticalAlign=middle;whiteSpace=wrap;rounded=0;" parent="1" vertex="1">
          <mxGeometry x="310" y="115" width="60" height="30" as="geometry" />
        </mxCell>
        <mxCell id="fttkbjFi21xkt61TpV1o-9" value="bd_wrapper" style="rounded=0;whiteSpace=wrap;html=1;" parent="1" vertex="1">
          <mxGeometry x="370" y="195" width="120" height="60" as="geometry" />
        </mxCell>
        <mxCell id="fttkbjFi21xkt61TpV1o-11" value="" style="endArrow=classic;html=1;rounded=0;exitX=0.5;exitY=0;exitDx=0;exitDy=0;" parent="1" source="fttkbjFi21xkt61TpV1o-9" edge="1">
          <mxGeometry width="50" height="50" relative="1" as="geometry">
            <mxPoint x="450" y="205" as="sourcePoint" />
            <mxPoint x="430" y="75" as="targetPoint" />
          </mxGeometry>
        </mxCell>
        <mxCell id="fttkbjFi21xkt61TpV1o-12" value="DDR" style="edgeLabel;html=1;align=center;verticalAlign=middle;resizable=0;points=[];" parent="fttkbjFi21xkt61TpV1o-11" vertex="1" connectable="0">
          <mxGeometry x="-0.0737" relative="1" as="geometry">
            <mxPoint y="16" as="offset" />
          </mxGeometry>
        </mxCell>
        <mxCell id="fttkbjFi21xkt61TpV1o-15" value="" style="endArrow=classic;html=1;rounded=0;entryX=0;entryY=0.25;entryDx=0;entryDy=0;" parent="1" edge="1">
          <mxGeometry width="50" height="50" relative="1" as="geometry">
            <mxPoint x="110" y="395" as="sourcePoint" />
            <mxPoint x="310" y="395" as="targetPoint" />
          </mxGeometry>
        </mxCell>
        <mxCell id="fttkbjFi21xkt61TpV1o-16" value="Clk_Eth" style="edgeLabel;html=1;align=center;verticalAlign=middle;resizable=0;points=[];" parent="fttkbjFi21xkt61TpV1o-15" vertex="1" connectable="0">
          <mxGeometry x="0.008" y="-1" relative="1" as="geometry">
            <mxPoint as="offset" />
          </mxGeometry>
        </mxCell>
        <mxCell id="fttkbjFi21xkt61TpV1o-17" value="" style="endArrow=classic;html=1;rounded=0;entryX=0;entryY=0.25;entryDx=0;entryDy=0;" parent="1" edge="1">
          <mxGeometry width="50" height="50" relative="1" as="geometry">
            <mxPoint x="110" y="415" as="sourcePoint" />
            <mxPoint x="310" y="415" as="targetPoint" />
          </mxGeometry>
        </mxCell>
        <mxCell id="fttkbjFi21xkt61TpV1o-18" value="Tx_En" style="edgeLabel;html=1;align=center;verticalAlign=middle;resizable=0;points=[];" parent="fttkbjFi21xkt61TpV1o-17" vertex="1" connectable="0">
          <mxGeometry x="0.008" y="-1" relative="1" as="geometry">
            <mxPoint as="offset" />
          </mxGeometry>
        </mxCell>
        <mxCell id="fttkbjFi21xkt61TpV1o-19" value="" style="endArrow=classic;html=1;rounded=0;" parent="1" edge="1">
          <mxGeometry width="50" height="50" relative="1" as="geometry">
            <mxPoint x="660" y="674.71" as="sourcePoint" />
            <mxPoint x="990" y="675" as="targetPoint" />
          </mxGeometry>
        </mxCell>
        <mxCell id="fttkbjFi21xkt61TpV1o-20" value="Tx0" style="edgeLabel;html=1;align=center;verticalAlign=middle;resizable=0;points=[];" parent="fttkbjFi21xkt61TpV1o-19" vertex="1" connectable="0">
          <mxGeometry x="0.008" y="-1" relative="1" as="geometry">
            <mxPoint as="offset" />
          </mxGeometry>
        </mxCell>
        <mxCell id="fttkbjFi21xkt61TpV1o-22" value="" style="endArrow=classic;html=1;rounded=0;" parent="1" edge="1">
          <mxGeometry width="50" height="50" relative="1" as="geometry">
            <mxPoint x="660" y="695" as="sourcePoint" />
            <mxPoint x="990" y="695" as="targetPoint" />
          </mxGeometry>
        </mxCell>
        <mxCell id="fttkbjFi21xkt61TpV1o-23" value="Tx1" style="edgeLabel;html=1;align=center;verticalAlign=middle;resizable=0;points=[];" parent="fttkbjFi21xkt61TpV1o-22" vertex="1" connectable="0">
          <mxGeometry x="0.008" y="-1" relative="1" as="geometry">
            <mxPoint as="offset" />
          </mxGeometry>
        </mxCell>
        <mxCell id="fttkbjFi21xkt61TpV1o-30" value="" style="endArrow=classic;startArrow=classic;html=1;rounded=0;entryX=0;entryY=0.5;entryDx=0;entryDy=0;" parent="1" target="fttkbjFi21xkt61TpV1o-1" edge="1">
          <mxGeometry width="50" height="50" relative="1" as="geometry">
            <mxPoint x="110" y="475" as="sourcePoint" />
            <mxPoint x="310" y="415" as="targetPoint" />
          </mxGeometry>
        </mxCell>
        <mxCell id="fttkbjFi21xkt61TpV1o-33" value="MDIO" style="edgeLabel;html=1;align=center;verticalAlign=middle;resizable=0;points=[];" parent="fttkbjFi21xkt61TpV1o-30" vertex="1" connectable="0">
          <mxGeometry x="-0.0043" y="-2" relative="1" as="geometry">
            <mxPoint as="offset" />
          </mxGeometry>
        </mxCell>
        <mxCell id="fttkbjFi21xkt61TpV1o-34" value="" style="endArrow=classic;html=1;rounded=0;exitX=1;exitY=0.5;exitDx=0;exitDy=0;" parent="1" source="6gvxb45RrVg8vPV9pz8E-3" edge="1">
          <mxGeometry width="50" height="50" relative="1" as="geometry">
            <mxPoint x="830" y="425" as="sourcePoint" />
            <mxPoint x="990" y="375" as="targetPoint" />
          </mxGeometry>
        </mxCell>
        <mxCell id="fttkbjFi21xkt61TpV1o-36" value="Clk_MDC" style="edgeLabel;html=1;align=center;verticalAlign=middle;resizable=0;points=[];" parent="fttkbjFi21xkt61TpV1o-34" vertex="1" connectable="0">
          <mxGeometry x="-0.0112" y="2" relative="1" as="geometry">
            <mxPoint as="offset" />
          </mxGeometry>
        </mxCell>
        <mxCell id="fttkbjFi21xkt61TpV1o-40" value="" style="endArrow=classic;startArrow=classic;html=1;rounded=0;entryX=0.5;entryY=1;entryDx=0;entryDy=0;exitX=0;exitY=0.5;exitDx=0;exitDy=0;" parent="1" source="6gvxb45RrVg8vPV9pz8E-6" target="fttkbjFi21xkt61TpV1o-9" edge="1">
          <mxGeometry width="50" height="50" relative="1" as="geometry">
            <mxPoint x="470" y="345" as="sourcePoint" />
            <mxPoint x="520" y="295" as="targetPoint" />
            <Array as="points">
              <mxPoint x="430" y="275" />
            </Array>
          </mxGeometry>
        </mxCell>
        <mxCell id="fttkbjFi21xkt61TpV1o-41" value="AXIL" style="edgeLabel;html=1;align=center;verticalAlign=middle;resizable=0;points=[];" parent="fttkbjFi21xkt61TpV1o-40" vertex="1" connectable="0">
          <mxGeometry x="0.5768" relative="1" as="geometry">
            <mxPoint x="54" as="offset" />
          </mxGeometry>
        </mxCell>
        <mxCell id="fttkbjFi21xkt61TpV1o-42" value="" style="endArrow=classic;html=1;rounded=0;exitX=0.25;exitY=1;exitDx=0;exitDy=0;entryX=0;entryY=0.5;entryDx=0;entryDy=0;" parent="1" source="fttkbjFi21xkt61TpV1o-9" target="6gvxb45RrVg8vPV9pz8E-4" edge="1">
          <mxGeometry width="50" height="50" relative="1" as="geometry">
            <mxPoint x="420" y="365" as="sourcePoint" />
            <mxPoint x="470" y="315" as="targetPoint" />
            <Array as="points">
              <mxPoint x="400" y="675" />
            </Array>
          </mxGeometry>
        </mxCell>
        <mxCell id="fttkbjFi21xkt61TpV1o-45" value="AXIS" style="edgeLabel;html=1;align=center;verticalAlign=middle;resizable=0;points=[];" parent="fttkbjFi21xkt61TpV1o-42" vertex="1" connectable="0">
          <mxGeometry x="-0.7938" y="-1" relative="1" as="geometry">
            <mxPoint as="offset" />
          </mxGeometry>
        </mxCell>
      </root>
    </mxGraphModel>
  </diagram>
  <diagram id="IunJ7AEL2okmQQ0jTJB4" name="Pinout">
    <mxGraphModel dx="956" dy="580" grid="1" gridSize="10" guides="1" tooltips="1" connect="1" arrows="1" fold="1" page="1" pageScale="1" pageWidth="1100" pageHeight="850" background="none" math="0" shadow="0">
      <root>
        <mxCell id="0" />
        <mxCell id="1" parent="0" />
        <mxCell id="FFy0_cM0SC-ZIfRPa646-1" value="" style="shape=flexArrow;endArrow=classic;html=1;rounded=0;fillColor=none;strokeColor=#FFFFFF;" parent="1" edge="1">
          <mxGeometry width="50" height="50" relative="1" as="geometry">
            <mxPoint x="880" y="164.86000000000007" as="sourcePoint" />
            <mxPoint x="830" y="164.86000000000007" as="targetPoint" />
          </mxGeometry>
        </mxCell>
        <mxCell id="FFy0_cM0SC-ZIfRPa646-2" value="PMOD JA" style="text;html=1;align=center;verticalAlign=middle;whiteSpace=wrap;rounded=0;strokeColor=none;" parent="1" vertex="1">
          <mxGeometry x="890" y="149.99999999999994" width="60" height="30" as="geometry" />
        </mxCell>
        <mxCell id="FFy0_cM0SC-ZIfRPa646-3" value="" style="shape=flexArrow;endArrow=classic;html=1;rounded=0;fillColor=none;strokeColor=#FFFFFF;" parent="1" edge="1">
          <mxGeometry width="50" height="50" relative="1" as="geometry">
            <mxPoint x="880" y="344.86000000000007" as="sourcePoint" />
            <mxPoint x="830" y="344.86000000000007" as="targetPoint" />
            <Array as="points">
              <mxPoint x="855" y="344.99999999999994" />
            </Array>
          </mxGeometry>
        </mxCell>
        <mxCell id="FFy0_cM0SC-ZIfRPa646-4" value="PMOD JB" style="text;html=1;align=center;verticalAlign=middle;whiteSpace=wrap;rounded=0;strokeColor=none;fillColor=none;" parent="1" vertex="1">
          <mxGeometry x="890" y="329.99999999999994" width="60" height="30" as="geometry" />
        </mxCell>
        <mxCell id="FFy0_cM0SC-ZIfRPa646-22" value="" style="shape=flexArrow;endArrow=classic;html=1;rounded=0;fillColor=none;strokeColor=#FFFFFF;" parent="1" edge="1">
          <mxGeometry width="50" height="50" relative="1" as="geometry">
            <mxPoint x="880" y="524.8600000000001" as="sourcePoint" />
            <mxPoint x="830" y="524.8600000000001" as="targetPoint" />
          </mxGeometry>
        </mxCell>
        <mxCell id="FFy0_cM0SC-ZIfRPa646-23" value="LAN8720 ETH Board" style="text;html=1;align=center;verticalAlign=middle;whiteSpace=wrap;rounded=0;strokeColor=none;fillColor=none;" parent="1" vertex="1">
          <mxGeometry x="890" y="509.99999999999994" width="120" height="30" as="geometry" />
        </mxCell>
        <mxCell id="FFy0_cM0SC-ZIfRPa646-57" value="&lt;span style=&quot;color: rgb(255, 255, 255);&quot;&gt;VCC&lt;/span&gt;" style="whiteSpace=wrap;html=1;aspect=fixed;" parent="1" vertex="1">
          <mxGeometry x="310" y="80" width="80" height="80" as="geometry" />
        </mxCell>
        <mxCell id="FFy0_cM0SC-ZIfRPa646-58" value="&lt;font color=&quot;#ffffff&quot;&gt;GND&lt;/font&gt;" style="whiteSpace=wrap;html=1;aspect=fixed;" parent="1" vertex="1">
          <mxGeometry x="390" y="80" width="80" height="80" as="geometry" />
        </mxCell>
        <mxCell id="FFy0_cM0SC-ZIfRPa646-59" value="&lt;span style=&quot;color: rgb(255, 255, 255); font-size: 8px;&quot;&gt;(4 : N) - GND&lt;/span&gt;&lt;div style=&quot;color: rgb(255, 255, 255); font-size: 8px;&quot;&gt;[Y17]&lt;/div&gt;" style="whiteSpace=wrap;html=1;aspect=fixed;" parent="1" vertex="1">
          <mxGeometry x="470" y="80" width="80" height="80" as="geometry" />
        </mxCell>
        <mxCell id="FFy0_cM0SC-ZIfRPa646-60" value="&lt;span style=&quot;color: rgb(255, 255, 255); font-size: 8px;&quot;&gt;(2 : N) - GND&lt;/span&gt;&lt;div style=&quot;color: rgb(255, 255, 255); font-size: 8px;&quot;&gt;[Y19]&lt;/div&gt;" style="whiteSpace=wrap;html=1;aspect=fixed;" parent="1" vertex="1">
          <mxGeometry x="630" y="80" width="80" height="80" as="geometry" />
        </mxCell>
        <mxCell id="FFy0_cM0SC-ZIfRPa646-61" value="&lt;span style=&quot;color: rgb(255, 255, 255); font-size: 8px;&quot;&gt;(3 : P) - TX_EN&lt;/span&gt;&lt;div style=&quot;color: rgb(255, 255, 255); font-size: 8px;&quot;&gt;[Y16]&lt;span style=&quot;color: rgba(0, 0, 0, 0); font-family: monospace; font-size: 0px; text-align: start; text-wrap: nowrap; background-color: initial;&quot;&gt;%3CmxGraphModel%3E%3Croot%3E%3CmxCell%20id%3D%220%22%2F%3E%3CmxCell%20id%3D%221%22%20parent%3D%220%22%2F%3E%3CmxCell%20id%3D%222%22%20value%3D%22(10%20%3A%20N)%20-%20GND%26lt%3Bdiv%26gt%3B%5BW19%5D%26lt%3B%2Fdiv%26gt%3B%22%20style%3D%22shape%3DpartialRectangle%3Bhtml%3D1%3BwhiteSpace%3Dwrap%3Bconnectable%3D0%3BstrokeColor%3Ddefault%3Boverflow%3Dhidden%3BfillColor%3D%23d5e8d4%3Btop%3D0%3Bleft%3D0%3Bbottom%3D0%3Bright%3D0%3BpointerEvents%3D1%3BfontSize%3D8%3B%22%20vertex%3D%221%22%20parent%3D%221%22%3E%3CmxGeometry%20x%3D%22246%22%20y%3D%22310%22%20width%3D%2259%22%20height%3D%2240%22%20as%3D%22geometry%22%3E%3CmxRectangle%20width%3D%2259%22%20height%3D%2240%22%20as%3D%22alternateBounds%22%2F%3E%3C%2FmxGeometry%3E%3C%2FmxCell%3E%3C%2Froot%3E%3C%2FmxGraphModel%3E&lt;/span&gt;&lt;/div&gt;" style="whiteSpace=wrap;html=1;aspect=fixed;" parent="1" vertex="1">
          <mxGeometry x="550" y="80" width="80" height="80" as="geometry" />
        </mxCell>
        <mxCell id="FFy0_cM0SC-ZIfRPa646-62" value="&lt;span style=&quot;color: rgb(255, 255, 255); font-size: 8px;&quot;&gt;(7 : P) - TX1&lt;/span&gt;&lt;div style=&quot;color: rgb(255, 255, 255); font-size: 8px;&quot;&gt;[Y18]&lt;/div&gt;" style="whiteSpace=wrap;html=1;aspect=fixed;" parent="1" vertex="1">
          <mxGeometry x="710" y="80" width="80" height="80" as="geometry" />
        </mxCell>
        <mxCell id="FFy0_cM0SC-ZIfRPa646-63" value="&lt;font color=&quot;#ffffff&quot;&gt;VCC&lt;/font&gt;" style="whiteSpace=wrap;html=1;aspect=fixed;" parent="1" vertex="1">
          <mxGeometry x="310" y="160" width="80" height="80" as="geometry" />
        </mxCell>
        <mxCell id="FFy0_cM0SC-ZIfRPa646-64" value="&lt;span style=&quot;color: rgb(255, 255, 255);&quot;&gt;GND&lt;/span&gt;" style="whiteSpace=wrap;html=1;aspect=fixed;" parent="1" vertex="1">
          <mxGeometry x="390" y="160" width="80" height="80" as="geometry" />
        </mxCell>
        <mxCell id="FFy0_cM0SC-ZIfRPa646-65" value="&lt;span style=&quot;color: rgb(255, 255, 255); font-size: 8px;&quot;&gt;(10 : N) - GND&lt;/span&gt;&lt;div style=&quot;color: rgb(255, 255, 255); font-size: 8px;&quot;&gt;[W19]&lt;/div&gt;" style="whiteSpace=wrap;html=1;aspect=fixed;" parent="1" vertex="1">
          <mxGeometry x="470" y="160" width="80" height="80" as="geometry" />
        </mxCell>
        <mxCell id="FFy0_cM0SC-ZIfRPa646-66" value="&lt;span style=&quot;color: rgb(255, 255, 255); font-size: 8px;&quot;&gt;(9 : P) - TX0&lt;/span&gt;&lt;div style=&quot;color: rgb(255, 255, 255); font-size: 8px;&quot;&gt;[W18]&lt;/div&gt;" style="whiteSpace=wrap;html=1;aspect=fixed;" parent="1" vertex="1">
          <mxGeometry x="550" y="160" width="80" height="80" as="geometry" />
        </mxCell>
        <mxCell id="FFy0_cM0SC-ZIfRPa646-67" value="&lt;span style=&quot;color: rgb(255, 255, 255); font-size: 8px;&quot;&gt;(8 : N) - GND&lt;/span&gt;&lt;div style=&quot;color: rgb(255, 255, 255); font-size: 8px;&quot;&gt;[U19]&lt;/div&gt;" style="whiteSpace=wrap;html=1;aspect=fixed;" parent="1" vertex="1">
          <mxGeometry x="630" y="160" width="80" height="80" as="geometry" />
        </mxCell>
        <mxCell id="FFy0_cM0SC-ZIfRPa646-68" value="&lt;font color=&quot;#ffffff&quot;&gt;&lt;span style=&quot;font-size: 8px;&quot;&gt;(1 : P) -&amp;nbsp;&lt;/span&gt;&lt;font style=&quot;font-size: 8px;&quot;&gt;ETH_CLK&lt;/font&gt;&lt;/font&gt;&lt;div style=&quot;font-size: 8px;&quot;&gt;&lt;font color=&quot;#ffffff&quot;&gt;[U18]&lt;/font&gt;&lt;/div&gt;" style="whiteSpace=wrap;html=1;aspect=fixed;" parent="1" vertex="1">
          <mxGeometry x="710" y="160" width="80" height="80" as="geometry" />
        </mxCell>
        <mxCell id="FFy0_cM0SC-ZIfRPa646-69" value="&lt;span style=&quot;color: rgb(255, 255, 255);&quot;&gt;NC&lt;/span&gt;" style="whiteSpace=wrap;html=1;aspect=fixed;" parent="1" vertex="1">
          <mxGeometry x="310" y="270" width="80" height="80" as="geometry" />
        </mxCell>
        <mxCell id="FFy0_cM0SC-ZIfRPa646-70" value="&lt;span style=&quot;color: rgb(255, 255, 255);&quot;&gt;NC&lt;/span&gt;" style="whiteSpace=wrap;html=1;aspect=fixed;" parent="1" vertex="1">
          <mxGeometry x="390" y="270" width="80" height="80" as="geometry" />
        </mxCell>
        <mxCell id="FFy0_cM0SC-ZIfRPa646-71" value="&lt;span style=&quot;font-size: 8px;&quot;&gt;&lt;font color=&quot;#ffffff&quot;&gt;(4 : N) - GND&lt;/font&gt;&lt;/span&gt;&lt;div style=&quot;font-size: 8px;&quot;&gt;&lt;font color=&quot;#ffffff&quot;&gt;[T10]&lt;/font&gt;&lt;/div&gt;" style="whiteSpace=wrap;html=1;aspect=fixed;" parent="1" vertex="1">
          <mxGeometry x="470" y="270" width="80" height="80" as="geometry" />
        </mxCell>
        <mxCell id="FFy0_cM0SC-ZIfRPa646-72" value="&lt;span style=&quot;font-size: 8px;&quot;&gt;&lt;font color=&quot;#ffffff&quot;&gt;(2 : N) - GND&lt;/font&gt;&lt;/span&gt;&lt;div style=&quot;font-size: 8px;&quot;&gt;&lt;font color=&quot;#ffffff&quot;&gt;[Y14]&lt;/font&gt;&lt;/div&gt;" style="whiteSpace=wrap;html=1;aspect=fixed;" parent="1" vertex="1">
          <mxGeometry x="630" y="270" width="80" height="80" as="geometry" />
        </mxCell>
        <mxCell id="FFy0_cM0SC-ZIfRPa646-73" value="&lt;span style=&quot;font-size: 8px;&quot;&gt;&lt;font color=&quot;#ffffff&quot;&gt;(3 : P) - RX0&lt;/font&gt;&lt;/span&gt;&lt;div style=&quot;font-size: 8px;&quot;&gt;&lt;font color=&quot;#ffffff&quot;&gt;[T11]&lt;/font&gt;&lt;/div&gt;" style="whiteSpace=wrap;html=1;aspect=fixed;" parent="1" vertex="1">
          <mxGeometry x="550" y="270" width="80" height="80" as="geometry" />
        </mxCell>
        <mxCell id="FFy0_cM0SC-ZIfRPa646-74" value="&lt;span style=&quot;font-size: 8px;&quot;&gt;&lt;font color=&quot;#ffffff&quot;&gt;(1 : P) - MDC&lt;/font&gt;&lt;/span&gt;&lt;div style=&quot;font-size: 8px;&quot;&gt;&lt;font color=&quot;#ffffff&quot;&gt;[W14]&lt;/font&gt;&lt;/div&gt;" style="whiteSpace=wrap;html=1;aspect=fixed;" parent="1" vertex="1">
          <mxGeometry x="710" y="270" width="80" height="80" as="geometry" />
        </mxCell>
        <mxCell id="FFy0_cM0SC-ZIfRPa646-75" value="&lt;span style=&quot;color: rgb(255, 255, 255);&quot;&gt;NC&lt;/span&gt;" style="whiteSpace=wrap;html=1;aspect=fixed;" parent="1" vertex="1">
          <mxGeometry x="310" y="350" width="80" height="80" as="geometry" />
        </mxCell>
        <mxCell id="FFy0_cM0SC-ZIfRPa646-76" value="&lt;span style=&quot;color: rgb(255, 255, 255);&quot;&gt;NC&lt;/span&gt;" style="whiteSpace=wrap;html=1;aspect=fixed;" parent="1" vertex="1">
          <mxGeometry x="390" y="350" width="80" height="80" as="geometry" />
        </mxCell>
        <mxCell id="FFy0_cM0SC-ZIfRPa646-77" value="&lt;span style=&quot;font-size: 8px;&quot;&gt;&lt;font color=&quot;#ffffff&quot;&gt;(10 : N) - GND&lt;/font&gt;&lt;/span&gt;&lt;div style=&quot;font-size: 8px;&quot;&gt;&lt;font color=&quot;#ffffff&quot;&gt;[W13]&lt;/font&gt;&lt;/div&gt;" style="whiteSpace=wrap;html=1;aspect=fixed;" parent="1" vertex="1">
          <mxGeometry x="470" y="350" width="80" height="80" as="geometry" />
        </mxCell>
        <mxCell id="FFy0_cM0SC-ZIfRPa646-78" value="&lt;span style=&quot;forced-color-adjust: none; border-color: rgb(0, 0, 0); color: rgb(240, 240, 240); font-family: Helvetica; font-style: normal; font-variant-ligatures: normal; font-variant-caps: normal; font-weight: 400; letter-spacing: normal; orphans: 2; text-align: center; text-indent: 0px; text-transform: none; widows: 2; word-spacing: 0px; -webkit-text-stroke-width: 0px; white-space: normal; text-decoration-thickness: initial; text-decoration-style: initial; text-decoration-color: initial; font-size: 8px;&quot;&gt;&lt;font style=&quot;forced-color-adjust: none; border-color: rgb(0, 0, 0);&quot; color=&quot;#ffffff&quot;&gt;(9 : P) - RX1&lt;/font&gt;&lt;/span&gt;&lt;div style=&quot;forced-color-adjust: none; border-color: rgb(0, 0, 0); color: rgb(240, 240, 240); font-family: Helvetica; font-style: normal; font-variant-ligatures: normal; font-variant-caps: normal; font-weight: 400; letter-spacing: normal; orphans: 2; text-align: center; text-indent: 0px; text-transform: none; widows: 2; word-spacing: 0px; -webkit-text-stroke-width: 0px; white-space: normal; text-decoration-thickness: initial; text-decoration-style: initial; text-decoration-color: initial; font-size: 8px;&quot;&gt;&lt;font style=&quot;forced-color-adjust: none; border-color: rgb(0, 0, 0);&quot; color=&quot;#ffffff&quot;&gt;[V12]&lt;/font&gt;&lt;/div&gt;" style="whiteSpace=wrap;html=1;aspect=fixed;" parent="1" vertex="1">
          <mxGeometry x="550" y="350" width="80" height="80" as="geometry" />
        </mxCell>
        <mxCell id="FFy0_cM0SC-ZIfRPa646-79" value="&lt;span style=&quot;font-size: 8px;&quot;&gt;&lt;font color=&quot;#ffffff&quot;&gt;(8 : N) - GND&lt;/font&gt;&lt;/span&gt;&lt;div style=&quot;font-size: 8px;&quot;&gt;&lt;font color=&quot;#ffffff&quot;&gt;[W16]&lt;/font&gt;&lt;/div&gt;" style="whiteSpace=wrap;html=1;aspect=fixed;" parent="1" vertex="1">
          <mxGeometry x="630" y="350" width="80" height="80" as="geometry" />
        </mxCell>
        <mxCell id="FFy0_cM0SC-ZIfRPa646-80" value="&lt;span style=&quot;font-size: 8px;&quot;&gt;&lt;font color=&quot;#ffffff&quot;&gt;(7 : P) - MDIO&lt;/font&gt;&lt;/span&gt;&lt;div style=&quot;font-size: 8px;&quot;&gt;&lt;font color=&quot;#ffffff&quot;&gt;[V16]&lt;/font&gt;&lt;/div&gt;" style="whiteSpace=wrap;html=1;aspect=fixed;" parent="1" vertex="1">
          <mxGeometry x="710" y="350" width="80" height="80" as="geometry" />
        </mxCell>
        <mxCell id="FFy0_cM0SC-ZIfRPa646-81" value="({Pin # (doc)} : {Positive/Negative (LVDS)}) - {Function}&lt;div&gt;[{Net #}]&lt;/div&gt;" style="text;html=1;align=center;verticalAlign=middle;whiteSpace=wrap;rounded=0;" parent="1" vertex="1">
          <mxGeometry x="10" y="10" width="310" height="30" as="geometry" />
        </mxCell>
        <mxCell id="FFy0_cM0SC-ZIfRPa646-84" value="&lt;span style=&quot;color: rgb(255, 255, 255);&quot;&gt;GND&lt;/span&gt;" style="whiteSpace=wrap;html=1;aspect=fixed;" parent="1" vertex="1">
          <mxGeometry x="310" y="460" width="80" height="80" as="geometry" />
        </mxCell>
        <mxCell id="FFy0_cM0SC-ZIfRPa646-85" value="&lt;span style=&quot;color: rgb(255, 255, 255);&quot;&gt;MDIO&lt;/span&gt;" style="whiteSpace=wrap;html=1;aspect=fixed;" parent="1" vertex="1">
          <mxGeometry x="390" y="460" width="80" height="80" as="geometry" />
        </mxCell>
        <mxCell id="FFy0_cM0SC-ZIfRPa646-86" value="&lt;span style=&quot;color: rgb(255, 255, 255);&quot;&gt;nINT/&lt;/span&gt;&lt;div&gt;&lt;span style=&quot;color: rgb(255, 255, 255);&quot;&gt;RETCLK&lt;/span&gt;&lt;/div&gt;" style="whiteSpace=wrap;html=1;aspect=fixed;" parent="1" vertex="1">
          <mxGeometry x="470" y="460" width="80" height="80" as="geometry" />
        </mxCell>
        <mxCell id="FFy0_cM0SC-ZIfRPa646-87" value="&lt;font color=&quot;#ffffff&quot;&gt;TX_EN&lt;/font&gt;" style="whiteSpace=wrap;html=1;aspect=fixed;" parent="1" vertex="1">
          <mxGeometry x="630" y="460" width="80" height="80" as="geometry" />
        </mxCell>
        <mxCell id="FFy0_cM0SC-ZIfRPa646-88" value="&lt;font color=&quot;#ffffff&quot;&gt;RX0&lt;/font&gt;" style="whiteSpace=wrap;html=1;aspect=fixed;" parent="1" vertex="1">
          <mxGeometry x="550" y="460" width="80" height="80" as="geometry" />
        </mxCell>
        <mxCell id="FFy0_cM0SC-ZIfRPa646-89" value="&lt;font color=&quot;#ffffff&quot;&gt;TX1&lt;/font&gt;" style="whiteSpace=wrap;html=1;aspect=fixed;" parent="1" vertex="1">
          <mxGeometry x="710" y="460" width="80" height="80" as="geometry" />
        </mxCell>
        <mxCell id="FFy0_cM0SC-ZIfRPa646-90" value="&lt;span style=&quot;color: rgb(255, 255, 255);&quot;&gt;GND&lt;/span&gt;" style="whiteSpace=wrap;html=1;aspect=fixed;" parent="1" vertex="1">
          <mxGeometry x="310" y="540" width="80" height="80" as="geometry" />
        </mxCell>
        <mxCell id="FFy0_cM0SC-ZIfRPa646-91" value="&lt;span style=&quot;color: rgb(255, 255, 255);&quot;&gt;MDC&lt;/span&gt;" style="whiteSpace=wrap;html=1;aspect=fixed;" parent="1" vertex="1">
          <mxGeometry x="390" y="540" width="80" height="80" as="geometry" />
        </mxCell>
        <mxCell id="FFy0_cM0SC-ZIfRPa646-92" value="&lt;span style=&quot;color: rgb(255, 255, 255);&quot;&gt;CRS&lt;/span&gt;" style="whiteSpace=wrap;html=1;aspect=fixed;" parent="1" vertex="1">
          <mxGeometry x="470" y="540" width="80" height="80" as="geometry" />
        </mxCell>
        <mxCell id="FFy0_cM0SC-ZIfRPa646-93" value="&lt;span style=&quot;color: rgb(255, 255, 255);&quot;&gt;RX1&lt;/span&gt;" style="whiteSpace=wrap;html=1;aspect=fixed;" parent="1" vertex="1">
          <mxGeometry x="550" y="540" width="80" height="80" as="geometry" />
        </mxCell>
        <mxCell id="FFy0_cM0SC-ZIfRPa646-94" value="&lt;font color=&quot;#ffffff&quot;&gt;TX0&lt;/font&gt;" style="whiteSpace=wrap;html=1;aspect=fixed;" parent="1" vertex="1">
          <mxGeometry x="630" y="540" width="80" height="80" as="geometry" />
        </mxCell>
        <mxCell id="FFy0_cM0SC-ZIfRPa646-95" value="&lt;span style=&quot;color: rgb(255, 255, 255);&quot;&gt;NC&lt;/span&gt;" style="whiteSpace=wrap;html=1;aspect=fixed;" parent="1" vertex="1">
          <mxGeometry x="710" y="540" width="80" height="80" as="geometry" />
        </mxCell>
        <mxCell id="FFy0_cM0SC-ZIfRPa646-96" value="&lt;span style=&quot;color: rgb(255, 255, 255);&quot;&gt;VCC&lt;/span&gt;" style="whiteSpace=wrap;html=1;aspect=fixed;" parent="1" vertex="1">
          <mxGeometry x="230" y="460" width="80" height="80" as="geometry" />
        </mxCell>
        <mxCell id="FFy0_cM0SC-ZIfRPa646-97" value="&lt;span style=&quot;color: rgb(255, 255, 255);&quot;&gt;VCC&lt;/span&gt;" style="whiteSpace=wrap;html=1;aspect=fixed;" parent="1" vertex="1">
          <mxGeometry x="230" y="540" width="80" height="80" as="geometry" />
        </mxCell>
      </root>
    </mxGraphModel>
  </diagram>
</mxfile>
